<?xml version="1.0" encoding="utf-8"?>
<!-- Generator: Adobe Illustrator 23.1.0, SVG Export Plug-In . SVG Version: 6.00 Build 0)  -->
<svg version="1.1" xmlns="http://www.w3.org/2000/svg" xmlns:xlink="http://www.w3.org/1999/xlink" x="0px" y="0px"
	 viewBox="0 0 960 1080" style="enable-background:new 0 0 960 1080;" xml:space="preserve">
<style type="text/css">
	.st0{fill:#F3E7D9;}
	.st1{fill:#856792;}
	.st2{fill:#665070;}
	.st3{fill:#288453;}
	.st4{fill:#33A86D;}
	.st5{fill:#FFACFF;}
	.st6{fill:#992C29;}
	.st7{fill:#EE5D4F;}
	.st8{fill:#FEED7F;}
	.st9{fill:#F7BC4B;}
	.st10{opacity:0.8;}
	.st11{opacity:0.75;fill:#FFFCF3;}
	.st12{fill:#C94039;}
	.st13{fill:#F5894E;}
	.st14{fill:#CC6D3D;}
	.st15{fill:#273252;}
	.st16{fill:#1D2538;}
	.st17{fill:#CE9436;}
	.st18{fill:#29ABE2;}
	.st19{fill:#1689CB;}
</style>
<g id="cloud">
	<path class="st0" d="M724.37,505.62c0,0-5.94-41.59,32.09-55.85c38.03-14.26,42.78,17.83,42.78,17.83s28.52-49.91,59.42-36.84
		c30.9,13.07,22.58,43.97,22.58,43.97s13.07-16.64,21.39-8.32c8.32,8.32-16.64,27.33-65.36,46.35
		c-48.72,19.01-204.41,60.61-204.41,60.61L724.37,505.62z"/>
	<path class="st0" d="M384.71,492.41c0,0-205.49,45.24-269.39,53.88c-63.9,8.64-80.23,20.9-45.48-15.54s67.8-44.35,67.8-44.35
		s-48.75-53.45,16.56-102.49c26.1-19.59,75.82,26.69,75.82,26.69l97.7-45.12l48.11-22.22l42.07-19.43c0,0-16.52-47.42-6.08-89.29
		c10.61-42.52,62.61-63.22,113.3-28.01c0,0-1.75-73.56,44.32-99.98s128.78-9.39,160.36,20.73c31.58,30.12,36.21,91.74,10.25,165.17
		c0,0,46.22-20.09,66.86,15.83s-77.37,74.65-128.34,94.85C627.63,423.33,384.71,492.41,384.71,492.41z"/>
</g>
<g id="ground">
	<path class="st1" d="M680,992c-5-2-161,14-210,6s-76-25-84-25s43-43,43-43l-67,27c0,0-51,3-57,3s-136-6-144-6s-5-4-3-6s-15-6-15-11
		s6-10,11-12s-2-7,7-16s10-10,10-10s-1-9,7-21s20-15,20-15s38-29,40-29s216-40,216-40s36,1,48-1s12-4,22-4s34,7,41,10
		s17.86,5.21-1.14,9.21s-34.81,9.49-34.81,9.49l56.57,5.54l23.74,7.12l72.4-1.58c0,0,98.25,10.22,114.25,10.22s24.8,1.85,23.02,3.43
		C817.24,844.01,808,849,808,849s5.88-0.64,17.15,3.71C839.18,858.13,834,869,834,869s47.53,21.36,65.99,34.55
		C910.85,911.3,890,930,877,932s-141,47-156,51S680,992,680,992z"/>
	<path class="st2" d="M567.02,924.91c0,0-17.8,7.65,118.29,26.11c67.61,9.17,122.64,2.77,189.89-17.41
		c14.6-4.38,53.77-29.65-0.53-40.62c-42.93-8.67-177.75-4.46-196.09-1.32C637.04,898.8,567.02,924.91,567.02,924.91z"/>
	<g>
		<path class="st2" d="M490.73,803.02c-4.93,4.15-12.44,10.1-21.29,15.96c11.96-3.66,21.63-6.56,27.55-8
			C507.35,808.47,501.53,805.59,490.73,803.02z"/>
		<path class="st2" d="M446.36,795.95l-234.99,41.14L245.4,845c0,0,16.13,7.2,43.71,9.82c2.65-1.59,6.62-2.93,12.61-3.47
			c19.38-1.74,79.18-16.34,79.18-16.34c-17.69,8.62-41.62,15.63-61.28,20.5c1.36-0.06,2.73-0.14,4.12-0.23
			c32.41-2.13,87.64-18.52,128.35-30.98c5.46-4.63,13.65-10.56,25.15-16.49c4.41-2.27,7.85-4.06,10.57-5.46
			C471.18,798.76,446.36,795.95,446.36,795.95z"/>
	</g>
	<path class="st1" d="M499.36,784.79c0,0,27.93-14.02,60.54-12.19c23.73,1.34,10.29,6.73,10.29,6.73s32.97,3.96,11.14,10.88
		c-33.99,10.77-112.04,21.98-112.04,21.98L499.36,784.79z"/>
	<path class="st2" d="M505.31,825.22c0,0-58.15,14.24-24.92,14.24s92.57-4.75,89.01-4.75C565.84,834.71,505.31,825.22,505.31,825.22
		z"/>
	<path class="st2" d="M430.54,953.4c0,0-39.16,5.93-21.36,14.24c17.8,8.31,45.1-3.56,45.1-3.56L430.54,953.4z"/>
	<path class="st2" d="M317.79,926.1c0,0,10.68,2.37,16.62,3.56c5.93,1.19-3.56,14.24-18.99,14.24c-15.43,0-37.98-5.93-22.55-11.87
		S317.79,926.1,317.79,926.1z"/>
	<path class="st1" d="M583.24,816.91c0,0,38.11-16.88,64.67-18.97s49.66,3.94,49.66,3.94s-9.24,18.48-32.34,19.57
		C642.14,822.55,583.24,816.91,583.24,816.91z"/>
	<path class="st1" d="M828.62,921.42c0,0-7.76,7.76,1.29,9.06c9.06,1.29,49.17-7.76,49.17-7.76s3.88-15.53-10.35-12.94
		S828.62,921.42,828.62,921.42z"/>
	<path class="st1" d="M806.78,896.5c7.07-0.73,42.97,4.27,45.77,8.01c2.81,3.75-55.24,17.79-66.48,16.85
		c-11.24-0.94-9.26-16.12-4.27-18.21S799.71,897.23,806.78,896.5z"/>
	<path class="st2" d="M788.08,945.68c0,0,42.6,5.45,49.41,5.56c6.82,0.1,1.7,19.21-40.89,26.55c-42.6,7.34-71.56-2.7-56.23-10.46
		C755.71,959.57,788.08,945.68,788.08,945.68z"/>
	<path class="st2" d="M697.57,956.96c0,0,24.25,2.91,28.13,2.91c3.88,0,0.97,11.64-23.28,16.49c-24.25,4.85-40.73-0.97-32.01-5.82
		C679.15,965.68,697.57,956.96,697.57,956.96z"/>
	<path class="st2" d="M788.96,867.95c5.93-2.37,14.24-7.12,32.04-2.37s-1.19,13.05-1.19,13.05s-52.22,8.31-59.34,1.19
		C758.1,877.44,783.02,870.32,788.96,867.95z"/>
</g>
<g id="bush">
	<path class="st1" d="M180.52,869.52c0,0-15.82-15.67-30.59-10.65c-14.77,5.01-10.55,19.43-10.55,19.43s-5.8-11.91-14.77-7.52
		c-8.97,4.39-1.58,19.43-1.58,19.43s-7.91-5.01-16.88,4.39c-8.97,9.4,18.99,7.64,18.99,7.64l16.62-3.44c0,0-23.74,5.64-6.33,15.04
		c17.41,9.4,36.66,5.82,64.62-3.58S233.79,885.82,180.52,869.52z"/>
	<path class="st2" d="M258.45,857.26c0,0,16.62,9.49-3.56,13.05c-20.18,3.56-20.18,3.56-20.18,3.56s68.84,16.62,21.36,27.3
		c-47.47,10.68-65.27-3.56-65.27-3.56s-1.19,9.49-24.92,7.12c-23.74-2.37-74.77,1.19-34.42-24.92
		C171.81,853.7,258.45,857.26,258.45,857.26"/>
	<path class="st3" d="M178.45,858.88c0,0-24.14-31.9-34.24-24.75c-10.1,7.15,4.38,15.19,4.38,15.19s-27.72-21.73-28.47-8.02
		c-0.75,13.71,14.73,15.56,14.73,15.56s-19.46-6.4-24.29,5.34c-4.83,11.75,24.16,12.53,24.16,12.53s-28.8,1.04-13.36,11.18
		c0,0,33.85-0.17,46.35-7.35C180.21,871.39,178.45,858.88,178.45,858.88z"/>
	<path class="st3" d="M203.2,637.7c0,0-16.15-24.97-25.45-14.24c-15.43,17.8,7.12,41.54,7.12,41.54s-22.29-1.45-23.87,12.26
		s14.77,36.4,14.77,36.4s-15.82-10.55-21.63,4.22c-5.8,14.77,31.91,38.51,31.91,38.51s-34.55-27.43-39.82-8.97
		c-5.27,18.46,4.75,45.89,19.52,58.55s40.62,18.46,50.11,5.8S203.2,637.7,203.2,637.7z"/>
	<path class="st3" d="M181.31,804.38c0,0-19.52-13.19-34.81-11.08c-15.3,2.11-14.77,9.49-13.71,16.88
		c1.05,7.38,25.32,11.08,25.32,11.08s-12.13-5.8-14.24,4.75c-2.11,10.55,16.88,7.38,16.88,7.38s-5.8,14.24-2.64,23.74
		c3.16,9.49,34.55,7.38,34.55,7.38S231.95,832.34,181.31,804.38z"/>
	<path class="st4" d="M218.6,777.33c0,0-35.04-19.73-47.05-14.61c-12,5.12,2.32,12.13,15.69,22.29c0,0-8.29-5.09-14.42,3.37
		c-6.13,8.46,16.14,22.87,16.14,22.87s-16.29-0.41-24.28,13.15c-7.99,13.56,35.44,16.27,53.82,4.26
		C236.88,816.64,249.46,803.39,218.6,777.33z"/>
	<path class="st4" d="M440.03,633.48c0,0,5.27-40.62,23.21-42.2c17.93-1.58,7.38,27.43,7.38,27.43s7.91-8.97,16.88-8.44
		s19.52,29.01,18.46,44.84c-1.05,15.82-10.55,22.68-10.55,22.68s4.75-4.22,10.55-1.05c5.8,3.16,3.69,13.71,3.69,13.71
		s12.13-5.8,15.3,4.75c3.16,10.55-23.21,35.34-24.79,35.87c-1.58,0.53,15.82-12.66,27.43-8.44c11.6,4.22,7.38,15.3,7.38,15.3
		s6.33-8.44,11.6-2.11c5.27,6.33-6.86,23.21-6.86,23.21s8.44,0.53,3.16,11.6c-5.27,11.08-17.93,14.77-29.54,7.38
		c-11.6-7.38-2.11-1.05-2.11-1.05s20.57,7.91,6.33,14.77c0,0,22.68,4.75,5.8,8.44c-16.88,3.69-32.18,0-32.18,0s1.58,3.16-20.57,4.75
		c-22.15,1.58-49.05-16.88-49.05-16.88L440.03,633.48z"/>
	<path class="st3" d="M459.02,740.96c0,0-5.93-27.3,3.56-29.67c9.49-2.37,3.56,18.99,3.56,18.99s20.18-39.16,21.36-17.8
		c1.19,21.36-18.99,61.71-18.99,61.71s20.18-36.79,22.55-21.36c2.37,15.43-7.12,24.92-7.12,24.92s51.43-4.35,17.41,11.47
		S456.65,799.11,459.02,740.96z"/>
</g>
<g id="flowers">
	<path class="st5" d="M479.59,659.59c-8.82,2.16-11.87-0.26-15.03-9.37c-3.16-9.12-2.37-11.92-2.37-11.92l7.12,6.31l5.27-12.97
		l5.8,8.76l5.27-4.28C485.66,636.12,491.46,656.69,479.59,659.59z"/>
	<path class="st5" d="M482.04,695.87c-12.79,5.39-17.27-17.29-17.27-17.29l7.61,2.18l0.98-10.14l6.19,8.08l5.55-5
		C485.1,673.7,494.84,690.48,482.04,695.87z"/>
	<path class="st5" d="M177.43,798.73c-12.79,5.39-17.27-17.29-17.27-17.29l7.61,2.18l0.98-10.14l6.19,8.08l5.55-5
		C180.49,776.56,190.22,793.34,177.43,798.73z"/>
	<path class="st5" d="M180.59,770.24c-12.79,5.39-17.27-17.29-17.27-17.29l7.61,2.18l0.98-10.14l6.19,8.08l5.55-5
		C183.65,748.07,193.38,764.85,180.59,770.24z"/>
	<path class="st5" d="M509.66,763.77c0,0-11.08-3.16-10.02-11.6c1.05-8.44,1.05-8.44,1.05-8.44l4.75,6.33l8.44-14.77l2.64,13.71
		l8.44-4.75C524.96,744.25,529.7,766.93,509.66,763.77z"/>
</g>
<g id="mirror">
	<path class="st6" d="M451.68,771.86l-51.2-436.77c3.12-10.01,7.11-26.36,6.49-43.1c-0.73-19.79-10.6-25.07-15.81-26.48
		c-0.34-0.83-0.71-1.65-1.12-2.45c3.29-3.29,9.13-10.22,6.93-16.07c-3-8-14-2-14-2c15-8,23.95-29.84,6.95-44.84
		s-38.77-4.48-38.77-4.48c6-13,2.31-27.44-3.69-32.44s-25.35,0.13-26.14,6.36c-0.72,5.63,4.6,3.07,8.6,3.07s3.05,2.33-0.95,22.33
		s-14,13-21,10s7.68-19.89,9.68-29.89s-8.44-31.38-46.68-25.11c-31.59,5.18-35.52,32.1-32,41c3.52,8.9,15,27,0,32
		s-11.31-0.02-16.26-11c-10.81-23.97,7.4-30.52,12.4-34.52S215.98,170,206.98,176s-12,17-9,34s12,24,12,24
		c-15-9-39.74-13.48-58.74,6.52s5.74,51.48,5.74,51.48s-10-6-10,4s8,13,8,13c-12,3-7,17-5,46c1.06,15.38,7.46,26.82,13.25,34.17
		l0.75,14.83l28.58,413.89c1.28,18.59,18.65,31.8,36.91,28.08l197.76-40.31C442.92,802.46,453.54,787.77,451.68,771.86z"/>
	<path class="st7" d="M468.7,771.86l-51.2-436.77c3.12-10.01,7.11-26.36,6.49-43.1c-0.73-19.79-10.6-25.07-15.81-26.48
		c-0.34-0.83-0.71-1.65-1.12-2.45c3.29-3.29,9.13-10.22,6.93-16.07c-3-8-14-2-14-2c15-8,18-29,1-44s-45,4-45,4c6-13-1-36-7-41
		s-13.74-3.07-14,4c-0.2,5.36,5,1,9,1s6,6,2,26s-14,13-21,10s-2-7,0-17s-5-39-37-38s-36.16,32.1-32,41c4.16,8.9,15,27,0,32
		s-17-3-26-11s-6-23-6-23s5-4,10-8s-1-11-10-5s-12,17-9,34s12,24,12,24c-15-9-42-10-61,10s8,48,8,48s-10-6-10,4s8,13,8,13
		c-12,3-7,17-5,46c1.06,15.38,7.46,26.82,13.25,34.17L181,404l28.58,413.89c1.28,18.59,18.65,31.8,36.91,28.08l197.76-40.31
		C459.94,802.46,470.57,787.77,468.7,771.86z"/>
	<path class="st8" d="M226.78,789.07c0,0-32.78-424.07-34.78-457.07s18-65,50-69s112-7,112-7c15.82-1.54,40,9,43,41
		s52.71,453.89,52.71,453.89c1.56,14.85-8.44,28.45-23.08,31.39L261.35,815.5C244.21,818.94,227.96,806.52,226.78,789.07z"/>
	<circle class="st6" cx="294.58" cy="186" r="13.05"/>
	<circle class="st9" cx="293" cy="186" r="11"/>
	<circle class="st8" cx="295.37" cy="180.59" r="4.01"/>
	<circle class="st9" cx="199.84" cy="249.1" r="11"/>
	<circle class="st8" cx="202.21" cy="243.69" r="4.01"/>
	<circle class="st9" cx="384.98" cy="228.73" r="11"/>
	<circle class="st8" cx="387.35" cy="223.32" r="4.01"/>
</g>
<g id="reflection">
	<g class="st10">
		<path class="st9" d="M313.04,467.99c0,0-33.55,0.35-39.58-19.49c-6.04-19.85,16.92-101.62,43.68-101.62
			c26.76,0,44.8,64.09,52.87,81.95s-1.19,26.11-23.74,33.23C329.86,467.24,313.04,467.99,313.04,467.99z"/>
		<path class="st9" d="M309.48,453.75c0,0-28.89,34.11-35.6,53.41c-6.71,19.3-10.95,309.15-10.95,309.15l174.73-36.19
			c0,0-43.55-261.96-53.41-282.46s-31.1-41.44-42.73-47.47C329.9,444.16,309.48,453.75,309.48,453.75z"/>
	</g>
</g>
<g id="glare">
	<path class="st11" d="M409.97,411.02l-4.75-41.93L231.15,265.84c0,0-21.36,0-30.07,26.11L409.97,411.02z"/>
	<polygon class="st11" points="191.86,329.13 194.76,369.48 420.12,498.19 414.71,453.62 	"/>
</g>
<g id="skirt">
	<path class="st12" d="M703.02,653.54c0.67,4.7-49.55,29.56-81.81,28.22c-32.25-1.34-70.54,0.88-76.35-5.69
		c-4.55-5.14,13.05-15.23,13.05-15.23s24.93-11.82,65.98-19.57C677.32,631.2,702.35,648.84,703.02,653.54z"/>
</g>
<g id="right_leg">
	<g>
		<path class="st13" d="M671.58,724.38c0,0,3.73,24.04,11.49,48.79c5.34,17.03,6.7,23.24,6.66,59.17
			c-0.01,8.22,2.52,37.25,2.33,42.94c-0.33,9.88-0.18,16.89-5.24,15.93c-7.97-1.51-10.42-4.77-19.5-44.26
			c-12.14-52.77-25.1-122.12-25.1-122.12L671.58,724.38z"/>
		<path class="st14" d="M671.58,724.38c0,0,3.73,24.04,11.49,48.79c5.34,17.03,6.7,23.24,6.66,59.17
			c-0.01,8.22,4.74,44.91,4.55,50.6c-0.33,9.88-2.39,9.23-7.46,8.27c-7.97-1.51-4.63-14.45-13.72-53.93
			c-12.14-52.77-8.4-55.57-8.4-55.57L671.58,724.38z"/>
		<path class="st15" d="M624.84,639.56c0,0,6.96,66.6,14.21,82.23c9.65,20.8,31.4,18.52,34.12,5.8c4.32-20.21,8.9-57,8.37-77.08
			C680.96,628.93,650.73,609.22,624.84,639.56z"/>
		<path class="st15" d="M673.17,721.59c6.46,3.33,11.35,51.41,11.35,51.41L653,779.28c0,0-8.37-21.42-13.21-51.21
			C635.34,700.64,667.76,711.45,673.17,721.59z"/>
		<path class="st16" d="M635.21,638.1c0,0-0.82,32.65,4.13,55.12c1.38,6.26,4.95,29.13,6.53,32.53c9.65,20.8,24.58,14.55,27.3,1.83
			c4.32-20.21,8.9-57,8.37-77.08C680.96,628.93,661.1,607.75,635.21,638.1z"/>
		<g>
			<path class="st14" d="M687.66,874.57c-2.88-0.79-5.98,0.02-8.41,1.76c-9.6,6.89-9.03,8.39-21.6,17.07
				c-9.09,6.28,21.72,2.87,24.1-4.05C683.79,883.41,697.17,877.16,687.66,874.57z"/>
			<path class="st6" d="M696.44,878.51c-0.51-4.89-8.44-0.68-14.89,1.31c-4.75,2.66-8.66,4.64-12.05,6.33
				c-9.51,4.74-18.77,10.37-22.67,11c-11.56,1.85,7.18,9.05,9.88,9.13c2.69,0.07,21.55-4.86,21.55-4.86l2.33-0.13
				c0.54,1.55,4.56,1,6.2,1l8.09-1.78c0,0,2.51-0.89,3.13-2.46C698.87,895.87,696.89,882.77,696.44,878.51z"/>
		</g>
		<path class="st16" d="M673.17,721.59c6.46,3.33,11.35,51.41,11.35,51.41l-27.76,5.34c0,0-6.25-21.74-11.09-51.53
			C641.21,699.38,667.76,711.45,673.17,721.59z"/>
	</g>
</g>
<g id="left_leg">
	<g>
		<path class="st15" d="M629.63,646.99c0,0-1.49,47.39-3.53,59.8c-2.04,12.41-34.68,50.65-46.29,2.13
			c-5.63-23.53-16.35-54.12-7.63-69.55C581.31,623.22,626.64,620.95,629.63,646.99z"/>
		<path class="st16" d="M629.63,646.99c0,0-1.36,47.48-3.66,59.75c-2.97,15.82-32.55,15.66-36-1.19c-1.6-7.82-9.58-22.5-15.16-26.18
			c-5.59-3.68-3.64-13.13-6.59-18.73c0,0,7.8-17.37,9.51-21.92C584.09,621.77,626.64,620.95,629.63,646.99z"/>
		<path class="st13" d="M589.54,769.41c1.24,10.85,14.54,113.5,18.89,132.33c2.91,12.56,17.17,14.03,16.74-3.47
			c-0.62-25.07,5.33-58.69,5.25-68.98c-0.24-30.91-7.36-66.58-7.36-66.58S588.97,764.4,589.54,769.41z"/>
		<path class="st14" d="M603.02,792.78c1.76,14.25,4.13,88.81,8.49,107.65c2.91,12.56,13.04,17.46,12.61-0.05
			c-0.62-25.07,6.39-60.8,6.31-71.09c-0.24-30.91-6.31-59.72-6.31-59.72S601.26,778.53,603.02,792.78z"/>
		<path class="st15" d="M584.03,725.26c2.11,16.88,5.8,44.84,5.8,44.84l35.87-2.64c0,0,7.19-42.53-3.3-59.74
			S581.92,708.38,584.03,725.26z"/>
		<path class="st16" d="M591.42,714.71c3.16,23.21,7.52,54.73,7.52,54.73l25.71-1.98c0,0,8.24-42.53-2.24-59.74
			S588.25,691.51,591.42,714.71z"/>
		<g>
			<path class="st14" d="M613.42,895.25c-14.09,10.08-16.28,11.72-28.1,20.06c-12.68,8.95,37.45,4.93,39.98-5.2
				C627.83,899.99,625.49,886.61,613.42,895.25z"/>
			<path class="st6" d="M626.96,900.38c-2.29-3.84-13.64,0.55-15.45,1.53c-1.81,0.98-21.62,11.12-21.62,11.12s-13.2,5.2-18.6,6.64
				c-15.31,4.06,10.73,9.74,13.28,10.13c2.55,0.39,27.33-4.94,27.33-4.94l1.62,0.31l3.29,2.13c0,0,13.97-0.68,14.5-2.38
				C632.03,922.57,629.24,904.22,626.96,900.38z"/>
		</g>
	</g>
</g>
<g id="torso">
	<polygon class="st14" points="595.11,431.73 596.69,455.2 629.4,456.25 624.65,418.8 	"/>
	<path class="st9" d="M573.75,527.33L589.57,557c0,0-15.55,33.92-26.97,62.14s-20.9,50.6-18.13,57.72c0,0,8.97-6.46,29.71-13.25
		c23.64-7.73,87.39-20.11,129.01-10.08c0,0-36.96-71.22-51.74-105.49c0,0,19.49-77.94-5.38-91.38c-24.86-13.44-49.79-2.32-56.5,1.04
		c-5.23,2.62-17.14,29.41-20.31,38.64C567,502.93,565.65,512.42,573.75,527.33z"/>
	<path class="st17" d="M584.59,511.09l6.95,39.58l-23.08,55.84l39.31,17.13l-56.97,35.43l39.03-6.59c0,0,99.85-11.49,113.35,1.07
		c0,0-36.96-71.22-51.74-105.49c0,0,19.49-77.94-5.38-91.38c-24.86-13.44-49.79-2.32-56.5,1.04
		C582.85,461.06,571.83,473.46,584.59,511.09z"/>
</g>
<g id="head">
	<g>
		<path class="st14" d="M582.48,370.31c0,0-12.32,6.33-14.65,25.77c-2.33,19.44,2.47,44.56,27.15,40.35
			c38.71-6.59,33-37.7,30.68-44.56C615.71,362.53,582.48,370.31,582.48,370.31z"/>
		<path class="st13" d="M584.47,369.35c0,0-12.32,6.33-14.65,25.77c-2.33,19.44,2.47,44.56,27.15,40.35
			c38.71-6.59,33-37.7,30.68-44.56C617.7,361.58,584.47,369.35,584.47,369.35z"/>
		<path class="st9" d="M580.26,405.12c0,0-8.61-24.82,2.79-36.45c9.39-9.58,19.81-11.27,33.82-11.58c0,0-20.24,1.04-31.91,21.94
			C580.86,386.38,580.26,405.12,580.26,405.12z"/>
		<path class="st15" d="M594.24,364c0,0,18.36-14.18,40.21-2.24c21.85,11.94,23.17,19.83,23.7,29.61
			c0.53,9.78-2.37,12.66-2.37,12.66s9.55,4.97,10.92,13.04c1.37,8.07,3.67,22.79-23.06,28.89c-18.5,4.23-27.96,0.26-27.96,0.26
			c1.71-0.52-21.22,16.16-38.51,3.43c-12.05-8.88-14.88-31.37,3.03-39.96C580.21,409.7,575.87,369.89,594.24,364z"/>
		<path class="st16" d="M602.55,365.58c0,0,18.36-14.18,40.21-2.24s23.17,19.83,23.7,29.61c0.53,9.78-2.37,12.66-2.37,12.66
			s9.55,4.97,10.92,13.04c1.37,8.07,3.67,22.79-23.06,28.89c-18.5,4.23-27.96,0.26-27.96,0.26c1.71-0.52-21.22,16.16-38.51,3.43
			c-12.05-8.88-14.88-31.37,3.03-39.96C588.52,411.29,584.18,371.47,602.55,365.58z"/>
		<path class="st14" d="M574.16,400.72c0,0,2.33-13.49,7.48-11.96c5.15,1.53,6.87,14.68-2.74,21.66S574.16,400.72,574.16,400.72z"/>
		<path class="st13" d="M572.39,402c0,0,1.85-10.71,5.94-9.49c4.08,1.21,5.45,11.65-2.17,17.19S572.39,402,572.39,402z"/>
	</g>
</g>
<g id="bangs">
	<path class="st15" d="M607.07,360.81c0,0-10.14-19.8-17.89-14.79s9.54,19.9,9.54,19.9s-14.89-11.61-21.15-5.01
		c-6.26,6.6,3.16,18.53,17,16.78S607.07,360.81,607.07,360.81z"/>
	<path class="st16" d="M611.03,360.02c0,0-10.14-19.8-17.89-14.79c-7.76,5.01,9.54,19.9,9.54,19.9s-14.89-11.61-21.15-5.01
		c-6.26,6.6,3.16,18.53,17,16.78C612.38,375.16,611.03,360.02,611.03,360.02z"/>
</g>
<g id="ribbon">
	<g>
		<path class="st6" d="M584.14,378.91c0,0-7.23,8.92-14.69,12.78c-5.64,2.92-10.17,3.48-10.17,3.48l1.11-2.28l-2.83-2.15
			c0,0,10.57-1.19,24.36-13.15L584.14,378.91z"/>
		<path class="st6" d="M584.87,377.86c0,0-3.74,10.86-9.42,17.04c-4.3,4.67-8.36,6.75-8.36,6.75l0.27-2.52l-3.4-1.05
			c0,0,9.53-4.74,18.39-20.7L584.87,377.86z"/>
		<path class="st6" d="M580.14,382.34c-2.13-0.36-4.24-11.7,0.82-11.98c4.77-0.26,10.18,0.31,9.31,3.91
			C589.4,377.87,582.27,382.7,580.14,382.34z"/>
		<path class="st9" d="M578.26,375.89c0,0,0.75-4.88,2.26-4.78c1.51,0.1,0.18,2.19-0.19,5.4C579.96,379.72,578,377.95,578.26,375.89
			z"/>
		<g>
			<path class="st6" d="M581.89,379.97c0,0,0.3-2.24-2.98-4.39c-3.28-2.14-5.78-3.31-7.84-2c-2.07,1.3-2.74,6.98-1.54,9.82
				s8.46,0.62,10.28-0.47C581.64,381.85,581.89,379.97,581.89,379.97z"/>
		</g>
	</g>
</g>
<g id="left_arm_1_">
	<g>
		<path class="st13" d="M573.13,510.46c0,0,0.58,38.42,2.2,49.71c0.69,4.78,2.9,12.31,7.91,14.24c6.84,2.64,15.7-4.45,16.79-12.97
			c1.89-14.78,6.8-48.98,0.62-55.86S573.79,495.42,573.13,510.46z"/>
		<path class="st14" d="M585.65,519.96c0,0-1.32,28.79-1.52,41.56c-0.11,6.82,13.24,19.7,15.21,4.69
			c1.97-15.01,8.32-49.31,2.03-56.27C595.08,502.98,586.37,504.68,585.65,519.96z"/>
		<path class="st13" d="M548.03,628.8c-2.57-0.79-7.98-3.78,3.36-27.1c8.8-18.1,6.38-20.81,19.93-38.73
			c9.56-12.64,24.16-1.69,23.14,8.2s-12.47,25.32-22.7,39.93C557.66,631.27,550.6,629.59,548.03,628.8z"/>
		<path class="st14" d="M571.9,590.95c4.04-13.08,12.07-33.49,12.44-33.53c7.72-0.91,13.86,6.75,13.13,13.85
			c-1.02,9.89-15.08,25.13-25.31,39.74c-3.42,4.88-11.47,12.85-11.47,12.85S567.86,604.03,571.9,590.95z"/>
		<g>
			<path class="st12" d="M583.2,465.76c0,0-9.82,1.42-11.52,16.63c-1.71,15.21-0.19,31.39-0.19,31.39l32.72,2.24
				c0,0,3-6.19,2.38-33.01C606.03,458.67,583.2,465.76,583.2,465.76z"/>
			<path class="st6" d="M578.46,467.96c0,0,10.82,18.59,10.71,21.85c-0.12,3.26-3.03,24.78-3.03,24.78l18.08,1.43
				c0,0,3.01-6.45,1.83-32.23c-0.55-12.16-10.14-18.37-17.07-18.97C583.04,464.32,578.46,467.96,578.46,467.96z"/>
			<path class="st6" d="M583.58,485.55c0,0,7.96,10.61,6.05,17.85l-2.37,4.12C587.26,507.53,585.24,487.6,583.58,485.55z"/>
		</g>
	</g>
</g>
<g id="left_hand">
	<g>
		<path class="st14" d="M519.2,639.33c0,0-5.71,12.36-2.27,13.47c4.76,1.54,4.17-6.08,7.59-11.79
			C527.94,635.3,527.54,632.32,519.2,639.33z"/>
		<path class="st14" d="M538.91,633.52c0,0-7.64,8.21-9.2,11.55c-1.57,3.34,0.33,3.65,2.9,2.52c2.57-1.13,6.14-2.37,10.48-7.91
			S553.83,630.89,538.91,633.52z"/>
		<path class="st13" d="M559.14,616.12c-4.79-1.55-30.93,5.86-30.93,5.86s-14.37,11.44-16.85,15.98s-9.7,14.98-8.14,16.53
			c2.22,2.2,5.69-2.44,5.69-2.44s-1.96,4.64,0.2,4.68s4.91-4.6,6.92-8.15c2.01-3.55,5.68-4.88,5.68-4.88s-5.03,6.68-5.22,10.04
			c-0.19,3.36,2.72,2.31,5-1.11c2.29-3.42,8.86-15.16,11.9-16.5c3.04-1.34,9.38,2.27,15.03-1.19
			C557.45,629.42,563.94,617.67,559.14,616.12z"/>
	</g>
</g>
<g id="cape">
	<path class="st18" d="M634.67,448.08c-10.7,0.92-26.36,2.98-34.28,3.73c-7.92,0.75-19.19,10.68-20.84,12.88
		c-3.56,4.75,3.71-1.03,9.18,7.43c2.17,3.35,4.4,7.27,6.23,11.76c6.46,15.84,13.2,25.85,12.96,39.33
		c-0.24,13.47-6.68,126.97,1.48,151.98c8.15,25.01,33.78,109.48,33.78,109.48s26.26-16.12,49.32-13.9
		c23.06,2.22,100.61-18.38,110.62-25.12c0,0-73.68-97.55-85.9-144.56S675.38,475.3,675.38,475.3S669.78,445.05,634.67,448.08z"/>
	<path class="st19" d="M601.44,469.18c0,0-2.37,17.8,27.3,40.35s65.27,21.36,65.27,21.36l-15.47-47.23L601.44,469.18z"/>
	<g>
		<path class="st18" d="M600.55,481.02c0,0,28.57,22.76,58.41,30.09c11.68,2.87,23.02,2.07,32.51-11.72
			c9.48-13.79,3.3-27.49-4.97-40.77s-25.86-9.51-51.62-9.97C609.13,448.19,586.65,455.86,600.55,481.02z"/>
		<path class="st6" d="M607.33,456.46c-6.34,5.3,65.66,32.71,71.22,27.19c5.55-5.52,3.8-18.8-3.69-27.42
			c-5.39-6.2-12.71-4.39-34.22-4.26C621.35,452.09,613.66,451.16,607.33,456.46z"/>
	</g>
	<path class="st19" d="M701.13,770.63c0,0,14.24-0.53,37.45-5.8l-31.12-43.25l-27.69-41.14l17.8,39.16L701.13,770.63z"/>
	<path class="st19" d="M803.13,745.64c0,0-41.86,14.7-50.57,16.28c0,0-53.8-144.4-53.8-149.14s-54.99-79.52-60.53-96.13
		c-5.54-16.62,55.78,14.24,55.78,14.24s17.41,49.05,25.32,77.54C727.24,636.91,803.13,745.64,803.13,745.64z"/>
	<path class="st18" d="M692.48,614.94c0,0,4.53,27.41,37.49,38.41L692.48,614.94z"/>
</g>
<g id="grass">
	<path class="st4" d="M234.64,840.91c0,0,3.23-15.25-1.32-26.76c-4.56-11.51-3.66,2.62-3.66,2.62s-1.83-17.16-14.17-16.33
		c-12.33,0.83,3.67,36.48,3.67,36.48s-6.6-16.51-17.12-9.28c-10.52,7.23,1.61,25.02,1.61,25.02s2.12-21.53-15.32-11.5
		s-13.46,27.2-13.46,27.2s-14.99-24.36-19.52-18.65s13.24,19.76,13.24,19.76s-20.08-4.39-17.51,3.93c2.57,8.32,11.3,7.6,11.3,7.6
		s0.12,1.45,16.82,0.26c16.7-1.19,2.08-6.11,2.08-6.11s46.08-1.01,39.04-3.96c-7.05-2.96-18.68-4.16-18.68-4.16
		s63.24-2.84,62.7-14.76C263.79,840.34,234.64,840.91,234.64,840.91z"/>
	<path class="st4" d="M338.76,911.46c0,0,5.54-18.2-3.16-20.57c-8.7-2.37-11.87,17.41-11.87,17.41s-3.96-22.95-8.7-15.82
		c-4.75,7.12,4.75,15.82,4.75,15.82s-10.29-24.53-21.36-21.36c-11.08,3.16,0,21.36,0,21.36s-10.29-3.16-8.7,3.16
		c1.58,6.33,49.85,5.54,62.51,3.16C364.87,912.25,338.76,911.46,338.76,911.46z"/>
	<path class="st2" d="M371.99,905.13c21.76-7.52,34.81-13.45,46.68-13.45s37.19,9.49,42.73,9.49s-7.12,10.29-35.6,15.03
		s-40.35-0.79-40.35-0.79S350.72,912.48,371.99,905.13z"/>
	<path class="st2" d="M443.59,921.35c0,0,24.92,0,32.04,0s-3.56,13.05-3.56,13.05s-34.42,8.31-41.54,8.31
		S443.59,921.35,443.59,921.35z"/>
</g>
</svg>
