<svg width="80" height="30" viewBox="0 0 118 50" fill="none" xmlns="http://www.w3.org/2000/svg">
<path d="M69.5566 30.2852C69.5566 29.2891 69.2051 28.5273 68.502 28C67.7988 27.4609 66.5332 26.8984 64.7051 26.3125C62.877 25.7148 61.4297 25.1289 60.3633 24.5547C57.457 22.9844 56.0039 20.8691 56.0039 18.209C56.0039 16.8262 56.3906 15.5957 57.1641 14.5176C57.9492 13.4277 59.0684 12.5781 60.5215 11.9688C61.9863 11.3594 63.627 11.0547 65.4434 11.0547C67.2715 11.0547 68.9004 11.3887 70.3301 12.0566C71.7598 12.7129 72.8672 13.6445 73.6523 14.8516C74.4492 16.0586 74.8477 17.4297 74.8477 18.9648H69.5742C69.5742 17.793 69.2051 16.8848 68.4668 16.2402C67.7285 15.584 66.6914 15.2559 65.3555 15.2559C64.0664 15.2559 63.0645 15.5313 62.3496 16.082C61.6348 16.6211 61.2773 17.3359 61.2773 18.2266C61.2773 19.0586 61.6934 19.7559 62.5254 20.3184C63.3691 20.8809 64.6055 21.4082 66.2344 21.9004C69.2344 22.8027 71.4199 23.9219 72.791 25.2578C74.1621 26.5938 74.8477 28.2578 74.8477 30.25C74.8477 32.4648 74.0098 34.2051 72.334 35.4707C70.6582 36.7246 68.4023 37.3516 65.5664 37.3516C63.5977 37.3516 61.8047 36.9941 60.1875 36.2793C58.5703 35.5527 57.334 34.5625 56.4785 33.3086C55.6348 32.0547 55.2129 30.6016 55.2129 28.9492H60.5039C60.5039 31.7734 62.1914 33.1855 65.5664 33.1855C66.8203 33.1855 67.7988 32.9336 68.502 32.4297C69.2051 31.9141 69.5566 31.1992 69.5566 30.2852ZM84.041 37H78.7676V11.4062H84.041V37ZM96.9609 26.7344L94.2188 29.6875V37H88.9453V11.4062H94.2188V23.0078L96.5391 19.8262L103.061 11.4062H109.547L100.459 22.7793L109.811 37H103.535L96.9609 26.7344ZM117.404 37H112.131V11.4062H117.404V37Z" fill="white"/>
<g clip-path="url(#clip0_0_1)">
<path d="M21.7888 49.9514L17.0232 48.2229C16.5232 48.0471 16.2419 47.3928 16.3826 46.7678L27.0466 0.849824C27.1873 0.224824 27.7107 -0.126738 28.2107 0.049043L32.9763 1.77756C33.4763 1.95334 33.7576 2.60764 33.6169 3.23264L22.9529 49.1506C22.8044 49.7756 22.2888 50.1369 21.7888 49.9514V49.9514ZM12.8826 38.9944L16.281 34.4631C16.6404 33.9846 16.6169 33.2229 16.2185 32.7834L9.14038 25.0002L16.2185 17.217C16.6169 16.7776 16.6482 16.0158 16.281 15.5373L12.8826 11.0061C12.531 10.5373 11.9373 10.508 11.5544 10.9572L0.296631 24.1408C-0.101807 24.5998 -0.101807 25.3908 0.296631 25.8498L11.5544 39.0432C11.9373 39.4924 12.531 39.4729 12.8826 38.9944V38.9944ZM38.4451 39.053L49.7029 25.8596C50.1013 25.4006 50.1013 24.6096 49.7029 24.1506L38.4451 10.9475C38.0701 10.508 37.4763 10.5276 37.1169 10.9963L33.7185 15.5276C33.3591 16.0061 33.3826 16.7678 33.781 17.2072L40.8591 25.0002L33.781 32.7834C33.3826 33.2229 33.3513 33.9846 33.7185 34.4631L37.1169 38.9944C37.4685 39.4729 38.0623 39.4924 38.4451 39.053V39.053Z" fill="black"/>
</g>
<defs>
<clipPath id="clip0_0_1">
<rect width="50" height="50" fill="white"/>
</clipPath>
</defs>
</svg>
