<svg width="879" height="538" viewBox="0 0 879 538" fill="none" xmlns="http://www.w3.org/2000/svg">
<g clip-path="url(#clip0_2_23)">
<path d="M183.378 509.419C260.609 509.419 323.217 480.767 323.217 445.423C323.217 410.079 260.609 381.427 183.378 381.427C106.147 381.427 43.5386 410.079 43.5386 445.423C43.5386 480.767 106.147 509.419 183.378 509.419Z" fill="#DAEBFF"/>
<path d="M126.184 538C150.184 538 169.641 529.096 169.641 518.112C169.641 507.128 150.184 498.224 126.184 498.224C102.183 498.224 82.7261 507.128 82.7261 518.112C82.7261 529.096 102.183 538 126.184 538Z" fill="#DAEBFF"/>
<path d="M437.634 450.413C504.464 450.413 558.64 441.509 558.64 430.526C558.64 419.542 504.464 410.638 437.634 410.638C370.805 410.638 316.628 419.542 316.628 430.526C316.628 441.509 370.805 450.413 437.634 450.413Z" fill="#DAEBFF"/>
<path d="M7.43066 387.777H799.813V392.892H7.43066V387.777Z" fill="#D3E2F9"/>
<path d="M103.826 386.701C103.826 386.701 94.6765 406.097 78.3985 413.304C62.1206 420.51 39.2984 411.431 26.5022 400.725C13.706 390.019 1.28664 374.793 0.0513317 363.441C-1.18371 352.09 20.2774 356.566 20.2774 356.566C20.2774 356.566 10.7932 342.771 6.84721 332.918C2.90118 323.066 7.52423 312.785 20.4927 318.905L33.4612 325.025C33.4612 325.025 23.5158 303.582 23.6954 290.19C23.8747 276.798 31.2873 256.712 45.2643 270.897C59.2413 285.081 60.6718 314.826 60.6718 314.826C60.6718 314.826 63.7816 302.149 68.2073 292.876C72.6334 283.602 81.826 284.806 86.0656 297.729C90.305 310.653 91.93 329.154 91.93 329.154C91.93 329.154 95.9812 314.878 102.596 317.148C109.211 319.417 113.068 336.144 111.958 352.566C110.847 368.987 103.826 386.701 103.826 386.701Z" fill="#00B77B"/>
<path d="M100.93 351.976C100.93 351.976 100.446 281.335 49.6188 256.173C49.6188 256.173 26.3571 315.503 61.6772 366.372C96.9973 417.241 89.7655 405.417 89.7655 405.417L100.93 351.976Z" fill="#00D967"/>
<path d="M62.167 289.22L91.0827 394.127" stroke="white" stroke-width="2" stroke-miterlimit="10" stroke-linecap="round" stroke-linejoin="round"/>
<path d="M384.393 338.312H490.888V403.134H384.393V338.312Z" fill="#2B7A78"/>
<path d="M332.735 402.513H542.546V430.615H332.735V402.513Z" fill="#2B7A78"/>
<path d="M662.318 343.774H212.963C199.966 343.774 189.43 333.091 189.43 319.913V23.8609C189.43 10.6828 199.966 3.05176e-05 212.963 3.05176e-05H662.318C675.315 3.05176e-05 685.851 10.6828 685.851 23.8609V319.913C685.851 333.091 675.315 343.774 662.318 343.774Z" fill="#2B7A78"/>
<path d="M647.586 330.3H227.694C215.637 330.3 205.864 320.39 205.864 308.165V35.6094C205.864 23.3843 215.637 13.474 227.694 13.474H647.586C659.643 13.474 669.417 23.3843 669.417 35.6094V308.165C669.417 320.39 659.643 330.3 647.586 330.3Z" fill="url(#paint0_linear_2_23)"/>
<path d="M369.526 47.937H231.889C228.88 47.937 226.441 45.4636 226.441 42.4123C226.441 39.3613 228.88 36.8876 231.889 36.8876H369.526C372.535 36.8876 374.974 39.361 374.974 42.4123C374.974 45.4634 372.535 47.937 369.526 47.937ZM369.526 71.9212H231.889C228.88 71.9212 226.441 69.4478 226.441 66.3965C226.441 63.3455 228.88 60.8719 231.889 60.8719H369.526C372.535 60.8719 374.974 63.3452 374.974 66.3965C374.974 69.4478 372.535 71.9212 369.526 71.9212ZM369.526 95.9057H231.889C228.88 95.9057 226.441 93.4323 226.441 90.3813C226.441 87.3302 228.88 84.8569 231.889 84.8569H369.526C372.535 84.8569 374.974 87.3302 374.974 90.3813C374.974 93.4323 372.535 95.9057 369.526 95.9057ZM369.526 119.89H231.889C228.88 119.89 226.441 117.417 226.441 114.365C226.441 111.314 228.88 108.841 231.889 108.841H369.526C372.535 108.841 374.974 111.314 374.974 114.365C374.974 117.417 372.535 119.89 369.526 119.89ZM369.526 143.875H231.889C228.88 143.875 226.441 141.401 226.441 138.35C226.441 135.299 228.88 132.826 231.889 132.826H369.526C372.535 132.826 374.974 135.299 374.974 138.35C374.974 141.401 372.535 143.875 369.526 143.875ZM369.526 193.662H231.889C228.88 193.662 226.441 191.189 226.441 188.137C226.441 185.086 228.88 182.613 231.889 182.613H369.526C372.535 182.613 374.974 185.086 374.974 188.137C374.974 191.188 372.535 193.662 369.526 193.662Z" fill="white"/>
<path d="M369.526 217.646H231.889C228.88 217.646 226.441 215.173 226.441 212.122C226.441 209.071 228.88 206.597 231.889 206.597H369.526C372.535 206.597 374.974 209.07 374.974 212.122C374.974 215.173 372.535 217.646 369.526 217.646Z" fill="#3AAFA9"/>
<path d="M369.526 241.631H231.889C228.88 241.631 226.441 239.157 226.441 236.106C226.441 233.055 228.88 230.582 231.889 230.582H369.526C372.535 230.582 374.974 233.055 374.974 236.106C374.974 239.157 372.535 241.631 369.526 241.631ZM369.526 265.615H231.889C228.88 265.615 226.441 263.142 226.441 260.09C226.441 257.039 228.88 254.566 231.889 254.566H369.526C372.535 254.566 374.974 257.039 374.974 260.09C374.974 263.142 372.535 265.615 369.526 265.615ZM369.526 289.6H231.889C228.88 289.6 226.441 287.126 226.441 284.075C226.441 281.024 228.88 278.551 231.889 278.551H369.526C372.535 278.551 374.974 281.024 374.974 284.075C374.974 287.126 372.535 289.6 369.526 289.6ZM633.524 193.662H404.764C401.755 193.662 399.315 191.189 399.315 188.137C399.315 185.086 401.755 182.613 404.764 182.613H633.524C636.533 182.613 638.972 185.086 638.972 188.137C638.972 191.188 636.533 193.662 633.524 193.662ZM633.524 217.646H404.764C401.755 217.646 399.315 215.173 399.315 212.122C399.315 209.071 401.755 206.597 404.764 206.597H633.524C636.533 206.597 638.972 209.07 638.972 212.122C638.972 215.173 636.533 217.646 633.524 217.646ZM633.524 241.631H404.764C401.755 241.631 399.315 239.157 399.315 236.106C399.315 233.055 401.755 230.582 404.764 230.582H633.524C636.533 230.582 638.972 233.055 638.972 236.106C638.972 239.157 636.533 241.631 633.524 241.631ZM633.524 265.615H404.764C401.755 265.615 399.315 263.142 399.315 260.09C399.315 257.039 401.755 254.566 404.764 254.566H633.524C636.533 254.566 638.972 257.039 638.972 260.09C638.972 263.142 636.533 265.615 633.524 265.615ZM633.524 289.6H404.764C401.755 289.6 399.315 287.126 399.315 284.075C399.315 281.024 401.755 278.551 404.764 278.551H633.524C636.533 278.551 638.972 281.024 638.972 284.075C638.972 287.126 636.533 289.6 633.524 289.6ZM644.023 145.191H401.451C398.79 145.191 396.633 143.005 396.633 140.306V40.8715C396.633 38.174 398.79 35.9884 401.451 35.9884H644.023C646.684 35.9884 648.84 38.174 648.84 40.8715V140.306C648.84 143.005 646.684 145.191 644.023 145.191Z" fill="white"/>
<path d="M642.076 94.4562V135.961C642.076 137.807 640.594 139.31 638.76 139.31H405.788C403.954 139.31 402.472 137.807 402.472 135.961V44.7927C423.989 44.7927 434.703 52.9495 440.985 63.6635C441.396 64.3484 441.779 65.0468 442.129 65.7627C452.756 86.1523 449.557 114.099 472.923 114.099C473.789 114.099 474.61 113.996 475.388 113.787C475.887 113.683 476.372 113.518 476.827 113.312C492.545 106.598 490.095 58.9611 518.056 59.3025C524.029 59.3785 528.491 61.6994 532.013 65.4051C532.35 65.778 532.688 66.1485 533.011 66.5516C545.53 81.449 545.707 114.649 564.932 120.676C571.862 122.849 577.982 119.903 584.029 115.038C584.41 114.723 584.806 114.412 585.187 114.07C597.972 103.309 610.683 84.9159 630.408 89.424C630.98 89.5582 631.554 89.7072 632.14 89.8729C635.266 90.7933 638.569 92.2806 642.076 94.4562Z" fill="#DAEBFF"/>
<path d="M642.091 86.0753C637.908 86.1369 634.708 87.5647 632.139 89.8729C627.385 94.1415 624.831 101.434 622.335 108.563C618.594 119.234 614.734 130.246 603.445 130.246C602.844 130.246 602.213 130.215 601.568 130.156C594.213 129.427 588.799 123.357 584.028 115.037C581.063 109.887 578.348 103.859 575.589 97.6854C567.781 80.3172 559.693 62.3552 544.81 61.9381C544.635 61.9381 544.474 61.9233 544.312 61.9233C539.806 61.9233 536.121 63.6635 533.01 66.5513C526.714 72.3703 522.706 82.8604 518.788 93.1296C512.99 108.324 507.002 124.041 493.484 124.353C483.768 124.562 479.351 120.84 475.388 113.786C473.861 111.048 472.393 107.804 470.72 104.098C467.667 97.3125 463.852 88.8738 457.54 79.0522C453.299 72.4745 447.913 68.2932 442.129 65.7627C426.543 58.873 408.196 63.9171 402.472 65.8082V64.2444C408.607 62.2795 425.75 57.8298 440.984 63.6636C447.634 66.2086 453.915 70.7168 458.758 78.2477C465.144 88.1453 468.973 96.6424 472.057 103.474C473.788 107.313 475.27 110.603 476.826 113.312C480.555 119.843 484.651 123.072 493.455 122.864C505.99 122.567 511.537 108.012 517.424 92.5958C521.415 82.1332 525.481 71.4467 532.013 65.4049C535.476 62.2062 539.629 60.2992 544.841 60.4487C560.663 60.8808 568.925 79.274 576.925 97.0743C579.654 103.115 582.296 109.023 585.187 114.07C589.767 122.136 594.904 127.984 601.713 128.669C613.338 129.83 617.036 119.263 620.957 108.057C623.392 101.078 625.886 93.965 630.407 89.424C633.284 86.5085 636.998 84.6631 642.062 84.5872L642.091 86.0753Z" fill="#00B77B"/>
<path d="M232.609 145.08H72.4428C67.2369 145.08 63.0166 140.801 63.0166 135.522V38.5091C63.0166 33.2303 67.2369 28.9513 72.4428 28.9513H232.609C237.815 28.9513 242.035 33.2305 242.035 38.5091V135.522C242.035 140.801 237.815 145.08 232.609 145.08Z" fill="#B0D8FF"/>
<path d="M242.035 37.9332C242.035 32.7709 237.908 28.5861 232.817 28.5861H75.5114C70.4201 28.5861 66.293 32.7709 66.293 37.9332V48.611H242.035V37.9332Z" fill="#2B7A78"/>
<path d="M66.293 48.6113V132.371C66.293 137.534 70.4201 141.719 75.5114 141.719H232.817C237.908 141.719 242.035 137.534 242.035 132.371V48.6113H66.293Z" fill="url(#paint1_linear_2_23)"/>
<path d="M201.034 42.3238C202.859 41.5572 203.726 39.4352 202.97 37.5843C202.214 35.7335 200.121 34.8545 198.296 35.6212C196.47 36.3878 195.603 38.5098 196.36 40.3607C197.116 42.2115 199.208 43.0905 201.034 42.3238Z" fill="white"/>
<path d="M215.485 42.3235C217.311 41.5569 218.177 39.4349 217.421 37.584C216.665 35.7331 214.572 34.8542 212.747 35.6209C210.922 36.3875 210.055 38.5095 210.811 40.3604C211.567 42.2112 213.66 43.0902 215.485 42.3235Z" fill="white"/>
<path d="M232.058 39.8413C232.512 37.8916 231.321 35.9378 229.398 35.4774C227.475 35.0171 225.548 36.2244 225.094 38.1741C224.64 40.1238 225.831 42.0775 227.754 42.5379C229.677 42.9983 231.604 41.7909 232.058 39.8413Z" fill="white"/>
<path d="M218.762 134.689H169.221C161.531 134.689 155.298 128.368 155.298 120.572V76.3388C155.298 68.5419 161.531 62.2215 169.221 62.2215H218.762C226.451 62.2215 232.685 68.5419 232.685 76.3388V120.571C232.685 128.368 226.451 134.689 218.762 134.689Z" fill="white"/>
<path d="M141.542 91.3954C138.371 77.1555 125.828 66.5175 110.826 66.5175V98.4552L141.542 91.3954Z" fill="#3AAFA9"/>
<path d="M110.826 98.4552V66.5175C93.4299 66.5175 79.3279 80.8163 79.3279 98.4552C79.3279 116.094 93.4299 130.393 110.826 130.393C128.221 130.393 142.324 116.094 142.324 98.4552C142.324 96.0279 142.048 93.6676 141.542 91.3954L110.826 98.4552Z" fill="white"/>
<path d="M110.826 123.402C124.122 123.402 134.9 112.473 134.9 98.9911C134.9 85.5094 124.122 74.5803 110.826 74.5803C97.5296 74.5803 86.751 85.5094 86.751 98.9911C86.751 112.473 97.5296 123.402 110.826 123.402Z" fill="#DAEBFF"/>
<path d="M725.233 210.067H872.901V409.755H725.233V210.067Z" fill="#EBF5FF"/>
<path d="M732.925 218.155H864.983V264.697H732.925V218.155ZM732.925 272.848H864.983V319.39H732.925V272.848ZM732.925 329.187H864.983V375.729H732.925V329.187Z" fill="#D1E3FF"/>
<path d="M803.645 228.148C803.645 230.874 801.596 233.083 799.067 233.083C796.538 233.083 794.488 230.874 794.488 228.148C794.488 225.423 796.538 223.214 799.067 223.214C801.596 223.214 803.645 225.423 803.645 228.148ZM803.645 282.636C803.645 285.362 801.596 287.571 799.067 287.571C796.538 287.571 794.488 285.362 794.488 282.636C794.488 279.91 796.538 277.701 799.067 277.701C801.596 277.701 803.645 279.911 803.645 282.636ZM803.645 338.563C803.645 341.289 801.596 343.498 799.067 343.498C796.538 343.498 794.488 341.289 794.488 338.563C794.488 335.838 796.538 333.628 799.067 333.628C801.596 333.628 803.645 335.838 803.645 338.563Z" fill="#F5FCFF"/>
<path d="M692.826 210.067H728.228V409.755H692.826V210.067Z" fill="#D1E3FF"/>
<path d="M25.3389 186.753H78.9964V210.808H25.3389V186.753Z" fill="#DAEBFF"/>
<path d="M47.0364 210.808H100.694V234.863H47.0364V210.808Z" fill="#EBF5FF"/>
<path d="M803.645 121.025H857.303V145.08H803.645V121.025Z" fill="#DAEBFF"/>
<path d="M825.342 145.08H879V169.135H825.342V145.08Z" fill="#EBF5FF"/>
<path d="M777.164 194.119H557.169C550.019 194.119 544.222 188.241 544.222 180.991V47.7385C544.222 40.4881 550.019 34.6104 557.169 34.6104H777.164C784.315 34.6104 790.112 40.4881 790.112 47.7385V180.991C790.112 188.241 784.315 194.119 777.164 194.119Z" fill="#B0D8FF"/>
<path d="M790.112 46.9475C790.112 39.8569 784.443 34.1089 777.45 34.1089H561.384C554.392 34.1089 548.723 39.8569 548.723 46.9475V61.6139H790.112V46.9475H790.112Z" fill="#2B7A78"/>
<path d="M548.722 61.6141V176.662C548.722 183.753 554.391 189.501 561.384 189.501H777.45C784.443 189.501 790.112 183.753 790.112 176.662V61.6141H548.722Z" fill="url(#paint2_linear_2_23)"/>
<path d="M644.602 74.4855H600.646C599.753 74.4855 599.028 73.6913 599.028 72.7116C599.028 71.7319 599.753 70.9377 600.646 70.9377H644.602C645.495 70.9377 646.22 71.7319 646.22 72.7116C646.219 73.6913 645.495 74.4855 644.602 74.4855Z" fill="#006DFE"/>
<path d="M637.355 90.3812H593.399C592.505 90.3812 591.781 89.5871 591.781 88.6074C591.781 87.6277 592.505 86.8335 593.399 86.8335H637.355C638.248 86.8335 638.972 87.6277 638.972 88.6074C638.972 89.5871 638.248 90.3812 637.355 90.3812Z" fill="#00D967"/>
<path d="M730.567 90.3812H655.084C654.191 90.3812 653.467 89.5871 653.467 88.6073C653.467 87.6276 654.191 86.8335 655.084 86.8335H730.567C731.46 86.8335 732.185 87.6276 732.185 88.6073C732.185 89.5871 731.46 90.3812 730.567 90.3812ZM682.608 74.4855H660.394C659.5 74.4855 658.776 73.6913 658.776 72.7116C658.776 71.7319 659.5 70.9377 660.394 70.9377H682.608C683.501 70.9377 684.226 71.7319 684.226 72.7116C684.226 73.6913 683.501 74.4855 682.608 74.4855ZM721.604 74.4855H699.389C698.496 74.4855 697.772 73.6913 697.772 72.7116C697.772 71.7319 698.496 70.9377 699.389 70.9377H721.604C722.497 70.9377 723.221 71.7319 723.221 72.7116C723.221 73.6913 722.497 74.4855 721.604 74.4855ZM622.808 106.277H593.931C593.038 106.277 592.313 105.483 592.313 104.503C592.313 103.523 593.038 102.729 593.931 102.729H622.808C623.701 102.729 624.425 103.523 624.425 104.503C624.425 105.482 623.701 106.277 622.808 106.277Z" fill="#006DFE"/>
<path d="M682.692 106.277H638.736C637.843 106.277 637.118 105.483 637.118 104.503C637.118 103.523 637.843 102.729 638.736 102.729H682.692C683.586 102.729 684.31 103.523 684.31 104.503C684.31 105.483 683.586 106.277 682.692 106.277Z" fill="#00D967"/>
<path d="M714.746 106.277H698.33C697.437 106.277 696.712 105.483 696.712 104.503C696.712 103.523 697.437 102.729 698.33 102.729H714.746C715.64 102.729 716.364 103.523 716.364 104.503C716.364 105.483 715.64 106.277 714.746 106.277ZM649.996 122.172H624.242C623.348 122.172 622.624 121.378 622.624 120.399C622.624 119.419 623.348 118.625 624.242 118.625H649.996C650.889 118.625 651.613 119.419 651.613 120.399C651.613 121.378 650.889 122.172 649.996 122.172ZM711.597 122.172H667.641C666.748 122.172 666.024 121.378 666.024 120.399C666.024 119.419 666.748 118.625 667.641 118.625H711.597C712.491 118.625 713.215 119.419 713.215 120.399C713.215 121.378 712.491 122.172 711.597 122.172ZM697.507 138.068H615.14C614.247 138.068 613.523 137.274 613.523 136.294C613.523 135.315 614.247 134.52 615.14 134.52H697.507C698.4 134.52 699.125 135.315 699.125 136.294C699.125 137.274 698.4 138.068 697.507 138.068ZM759.109 138.068H709.355C708.462 138.068 707.737 137.274 707.737 136.294C707.737 135.315 708.462 134.52 709.355 134.52H759.109C760.002 134.52 760.726 135.315 760.726 136.294C760.726 137.274 760.002 138.068 759.109 138.068ZM637.355 153.964H593.399C592.505 153.964 591.781 153.17 591.781 152.19C591.781 151.21 592.505 150.416 593.399 150.416H637.355C638.248 150.416 638.972 151.21 638.972 152.19C638.972 153.17 638.248 153.964 637.355 153.964Z" fill="#006DFE"/>
<path d="M690.547 153.964H646.591C645.698 153.964 644.973 153.17 644.973 152.19C644.973 151.21 645.698 150.416 646.591 150.416H690.547C691.44 150.416 692.165 151.21 692.165 152.19C692.164 153.17 691.44 153.964 690.547 153.964Z" fill="#00D967"/>
<path d="M694.779 169.86H628.016C627.123 169.86 626.399 169.065 626.399 168.086C626.399 167.106 627.123 166.312 628.016 166.312H694.779C695.672 166.312 696.397 167.106 696.397 168.086C696.397 169.065 695.672 169.86 694.779 169.86ZM570.295 70.9377H573.53V74.4855H570.295V70.9377ZM570.295 86.8335H573.53V90.3812H570.295V86.8335ZM570.295 102.729H573.53V106.277H570.295V102.729ZM570.295 118.625H573.53V122.172H570.295V118.625ZM570.295 134.52H573.53V138.068H570.295V134.52ZM570.295 150.416H573.53V153.964H570.295V150.416ZM570.295 166.312H573.53V169.86H570.295V166.312ZM742.114 177.095L730.324 171.603C729.959 171.433 729.722 171.04 729.722 170.605V169.425C729.722 168.99 729.959 168.597 730.324 168.428L742.114 162.936C742.766 162.632 743.489 163.157 743.489 163.934V164.355C743.489 164.795 743.247 165.191 742.877 165.358L734.781 169.013C733.965 169.381 733.965 170.649 734.781 171.018L742.877 174.673C743.247 174.84 743.489 175.236 743.489 175.675V176.097C743.489 176.874 742.766 177.399 742.114 177.095ZM752.803 159.836L747.357 180.486C747.235 180.949 746.847 181.268 746.407 181.268C745.749 181.268 745.275 180.576 745.458 179.883L750.904 159.233C751.026 158.77 751.413 158.451 751.853 158.451C752.512 158.451 752.986 159.143 752.803 159.836ZM767.937 171.603L756.147 177.095C755.495 177.399 754.772 176.874 754.772 176.097V175.676C754.772 175.236 755.014 174.84 755.384 174.673L763.48 171.018C764.296 170.649 764.296 169.382 763.48 169.013L755.384 165.358C755.014 165.191 754.772 164.795 754.772 164.356V163.934C754.772 163.157 755.495 162.633 756.147 162.936L767.937 168.428C768.302 168.598 768.539 168.991 768.539 169.425V170.606C768.539 171.04 768.302 171.433 767.937 171.603Z" fill="#006DFE"/>
<path d="M731.913 53.3672C734.627 53.3672 736.827 51.1363 736.827 48.3845C736.827 45.6326 734.627 43.4018 731.913 43.4018C729.199 43.4018 726.999 45.6326 726.999 48.3845C726.999 51.1363 729.199 53.3672 731.913 53.3672Z" fill="white"/>
<path d="M751.762 53.3672C754.476 53.3672 756.677 51.1363 756.677 48.3845C756.677 45.6326 754.476 43.4018 751.762 43.4018C749.048 43.4018 746.848 45.6326 746.848 48.3845C746.848 51.1363 749.048 53.3672 751.762 53.3672Z" fill="white"/>
<path d="M771.612 53.3672C774.326 53.3672 776.526 51.1363 776.526 48.3845C776.526 45.6326 774.326 43.4018 771.612 43.4018C768.898 43.4018 766.698 45.6326 766.698 48.3845C766.698 51.1363 768.898 53.3672 771.612 53.3672Z" fill="white"/>
<path d="M594.496 368.882H420.181C414.515 368.882 409.922 364.225 409.922 358.48V252.896C409.922 247.151 414.515 242.494 420.181 242.494H594.496C600.162 242.494 604.755 247.151 604.755 252.896V358.48C604.755 364.225 600.162 368.882 594.496 368.882Z" fill="#B0D8FF"/>
<path d="M604.755 252.27C604.755 246.651 600.263 242.097 594.722 242.097H423.52C417.979 242.097 413.487 246.651 413.487 252.27V263.891H604.755V252.27Z" fill="#2B7A78"/>
<path d="M413.487 263.891V355.051C413.487 360.669 417.979 365.224 423.52 365.224H594.722C600.263 365.224 604.755 360.669 604.755 355.051V263.891H413.487Z" fill="url(#paint3_linear_2_23)"/>
<path d="M562.435 254.382C562.926 252.26 561.628 250.13 559.536 249.625C557.445 249.121 555.351 250.433 554.86 252.555C554.37 254.678 555.668 256.808 557.759 257.312C559.851 257.817 561.945 256.505 562.435 254.382Z" fill="white"/>
<path d="M578.174 254.372C578.668 252.25 577.372 250.123 575.279 249.622C573.187 249.121 571.09 250.435 570.596 252.557C570.101 254.679 571.397 256.805 573.49 257.307C575.583 257.808 577.68 256.494 578.174 254.372Z" fill="white"/>
<path d="M593.903 254.372C594.397 252.25 593.101 250.124 591.008 249.623C588.916 249.122 586.818 250.436 586.324 252.558C585.83 254.68 587.126 256.806 589.219 257.307C591.311 257.808 593.409 256.494 593.903 254.372Z" fill="white"/>
<path d="M430.236 280.913H445.964V340.811H430.236V280.913ZM457.855 288.692H473.582V340.811H457.855V288.692ZM485.473 304.25H501.201V340.811H485.473V304.25ZM513.092 292.582H528.819V340.811H513.092V292.582ZM540.71 304.25H556.438V340.811H540.71V304.25ZM568.329 292.582H584.056V340.811H568.329V292.582ZM424.483 345.867H590.193V348.201H424.483V345.867Z" fill="#FF652F"/>
<path d="M107.266 305.21C107.266 305.21 111.604 242.293 144.871 208.715C178.139 175.138 242.657 171.319 267.598 186.049C292.539 200.779 307.75 221.371 314.571 269.834C321.392 318.297 319.346 384.921 306.498 413.225C293.649 441.53 266.744 472 230.108 480.599C193.473 489.199 153.773 495.377 112.746 485.049C71.7194 474.72 54.7042 463.585 45.1156 421.878C35.5271 380.171 68.0727 353.352 80.4754 345.079C92.878 336.806 107.266 305.21 107.266 305.21Z" fill="#9FD4FF"/>
<path d="M277.638 192.743C282.921 203.684 289.065 220.711 291.823 244.278C297.149 289.784 308.241 345.896 292.954 377.164C277.667 408.432 264.311 438.93 231.069 450.577C197.826 462.223 164.451 466.192 164.451 466.192C164.451 466.192 96.3572 466.686 56.0742 451.753C66.9453 470.134 83.9177 477.791 112.747 485.048C153.773 495.377 193.473 489.198 230.109 480.599C266.745 471.999 293.65 441.529 306.498 413.225C319.346 384.92 321.392 318.297 314.571 269.834C308.719 228.253 296.69 207.19 277.638 192.743Z" fill="#78CFFF"/>
<path d="M205.451 224.8L203.584 203.231L198.015 181.342C178.287 185.781 158.828 194.628 144.871 208.715C111.604 242.293 107.266 305.21 107.266 305.21C107.266 305.21 92.8778 336.806 80.4751 345.079C68.6726 352.952 38.6311 377.62 44.015 415.93C60.7886 419.374 84.7218 420.939 99.9519 407.398C125.41 384.761 182.4 284.274 182.4 284.274L205.451 224.8Z" fill="#B6E2FF"/>
<path d="M251.017 219.946C265.605 206.016 262.55 188.843 260.885 182.877C250.664 179.001 236.716 177.264 221.62 178.073L215.981 188.394L214.811 202.856C214.811 202.856 205.284 249.655 205.227 254.275C205.17 258.896 196.586 280.128 195.004 283.24C193.423 286.353 165.985 332.415 165.985 332.415C165.985 332.415 125.013 380.862 125.349 382.652C125.684 384.442 125.045 483.891 125.045 483.891L131.309 488.655C139.984 489.862 148.586 490.413 157.099 490.444C156.15 485.019 154.639 478.067 152.286 469.176C143.249 435.021 153.942 394.159 153.942 394.159C153.942 394.159 158.798 447.426 171.291 459.655C183.784 471.884 196.981 466.895 192.551 453.9C188.122 440.905 196.869 426.003 196.869 426.003C196.869 426.003 276.708 391.856 281.916 369.123C287.123 346.391 259.346 343.663 259.346 343.663C259.346 343.663 279.961 334.074 286.367 321.073C292.772 308.073 278.354 261.849 269.504 248.504C260.655 235.159 247.256 225.09 251.017 219.946Z" fill="#64C8FF"/>
<path d="M139.404 482.433C139.404 482.433 140.706 489.99 142.495 495.849C144.283 501.708 149.612 505.146 149.265 511.263C148.918 517.38 132.472 522.661 121.148 527.717C109.823 532.773 98.6577 533.438 97.4649 524.025C96.2722 514.611 116.407 512.218 120.531 498.775C124.655 485.332 121.86 484.213 121.86 484.213L139.404 482.433Z" fill="#17252A"/>
<path d="M113.013 500.976C113.013 500.976 126.15 497.607 131.027 501.429C135.903 505.252 138.381 518.081 136.675 522.555L147.973 520.849L156.084 511.14L150.387 491.339L137.53 478.942L111.498 484.732L113.013 500.976Z" fill="#17252A"/>
<path d="M184.623 395.935C184.623 395.935 178.197 399.985 172.696 402.536C167.196 405.087 161.117 403.348 156.849 407.686C152.581 412.024 159.655 427.977 163.481 439.909C167.307 451.841 174.256 460.727 181.974 455.357C189.692 449.987 178.038 433.168 185.178 421.093C192.317 409.019 195.001 410.387 195.001 410.387L184.623 395.935Z" fill="#17252A"/>
<path d="M168.209 402.588C168.209 402.588 174.502 406.689 174.82 418.901C175.137 431.114 183.681 456.783 183.681 456.783C183.681 456.783 187.205 449.317 187.529 448.745C187.852 448.174 184.807 429.903 184.807 429.903C184.807 429.903 190.739 421.003 191.046 420.726C191.353 420.448 195.47 411.049 195.47 411.049L178.458 392.806L168.209 402.588Z" fill="#17252A"/>
<path d="M238.226 338.959C238.226 338.959 267.105 349.26 272.009 359.058C276.912 368.856 274.077 384.328 244.538 397.369C215 410.41 188.411 422.736 188.411 422.736C188.411 422.736 174.567 413.38 174.809 397.168L213.084 374.676C213.084 374.676 203.582 369.037 192.16 370.367C180.738 371.697 136.969 377.793 136.969 377.793C136.969 377.793 142.101 423.596 145.791 487.238C145.791 487.238 132.095 497.951 116.799 490.575C116.799 490.575 95.9463 385.522 97.2132 368.19C98.4801 350.857 109.624 344.127 125.517 340.917C141.409 337.706 173.989 327.497 173.989 327.497L238.226 338.959Z" fill="#1E2889"/>
<path d="M96.6904 351.639C96.6904 351.639 112.602 348.089 121.542 359.84C130.482 371.591 144.809 401.332 144.809 401.332L185.361 391.651C185.361 391.651 203.199 382.291 219.837 376.173C236.475 370.056 255.167 358.452 266.445 370.021C277.723 381.589 263.414 398.013 263.414 398.013L285.296 371.112L280.12 333.839L194.181 315.095L118.149 321.902L96.6904 351.639Z" fill="#17216B"/>
<path d="M270.979 280.451C266.697 267.37 258.244 243.525 246.478 238.911C234.711 234.296 217.587 233.944 217.587 233.944L212.679 234.594L197.773 234.075C171.535 233.835 167.389 240.601 162.283 249.894C157.682 258.268 153.006 271.262 153.006 271.262L135.345 325.26C173.808 355.144 241.334 341.794 241.334 341.794C241.334 341.794 266.203 330.401 273.983 323.992C281.763 317.583 275.262 293.532 270.979 280.451ZM174.507 287.587L173.321 308.651L161.512 305.325C161.512 305.325 168.833 283.61 175.494 270.056L174.507 287.587ZM253.006 306.404C251.283 311.172 238.453 319.428 238.453 319.428L242.038 276.415C242.038 276.415 254.729 301.637 253.006 306.404Z" fill="#3AAFA9"/>
<path d="M242.643 281.171L242.038 276.415C242.038 276.415 241.209 265.304 242.932 255.373C242.932 255.373 234.8 273.194 231.052 295.84C227.304 318.487 186.724 323.513 186.724 323.513L186.103 339.703L216.942 337.17L222.151 332.497L238.453 319.428L244.863 293.432L242.643 281.171ZM270.339 272.448C270.306 273.036 275.303 297.96 274.177 307.63C273.05 317.3 270.403 320.392 257.034 327.879C243.665 335.365 224.931 342.541 224.931 342.541L225.686 347.226L241.549 347.126L254.574 340.569L275.918 332.512C275.918 332.512 281.847 323.857 282.112 319.152C282.376 314.447 284.995 314.451 282.061 304.546C279.127 294.641 270.339 272.448 270.339 272.448ZM172.474 278.068L175.08 270.907C175.08 270.907 173.394 266.247 176.214 250.774L162.55 286.895L158.369 307.785L166.246 297.842L172.474 278.068Z" fill="#3AAFA9"/>
<path d="M188.568 334.683C188.568 334.683 193.117 328.825 198.239 326.983C203.362 325.14 222.151 332.497 222.151 332.497L226.532 343.814C226.532 343.814 219.892 348.076 211.999 346.144C204.106 344.212 191.659 344.377 191.659 344.377L188.568 334.683Z" fill="#FFACA6"/>
<path d="M118.631 338.008L223.647 344.087L223.21 351.852L118.193 345.773L118.631 338.008Z" fill="#78C2FF"/>
<path d="M195.308 350.223L103.843 344.929L94.2727 279.172L185.737 284.467L195.308 350.223Z" fill="#0542BF"/>
<path d="M188.46 349.827L96.9951 344.532L87.4246 278.776L178.889 284.07L188.46 349.827Z" fill="#006DFE"/>
<path d="M136.682 317.889C141.144 317.212 144.069 311.968 143.215 306.177C142.361 300.385 138.051 296.238 133.588 296.915C129.126 297.592 126.201 302.836 127.055 308.627C127.909 314.419 132.219 318.565 136.682 317.889Z" fill="white"/>
<path d="M199.945 225.754C199.717 228.126 199.089 230.914 197.773 234.075C197.773 234.075 200.181 239.918 206.718 239.215C213.256 238.512 217.587 233.944 217.587 233.944C217.587 233.944 216.273 231.389 215.604 226.877C209.894 223.874 203.915 224.621 199.945 225.754Z" fill="#FFACA6"/>
<path d="M215.604 226.877C215.104 223.498 214.964 219.023 216.011 213.693L211.992 211.002L198.589 216.52C198.589 216.52 200.514 219.839 199.945 225.754C203.915 224.621 209.894 223.874 215.604 226.877Z" fill="#EA756C"/>
<path d="M189.384 183.634C189.384 183.634 182.19 184.679 179.206 173.211C176.894 164.325 182.051 161.034 185.7 158.787C189.348 156.54 189.624 154.633 194.313 152.008C200.522 148.533 203.013 152.512 206.438 150.252C209.863 147.991 216.368 147.859 219.701 152.396C223.034 156.933 225.242 154.831 230.244 157.284C235.246 159.737 233.136 166.203 235.453 168.108C237.771 170.012 241.502 170.917 240.994 176.492C240.486 182.068 236.73 183.326 239.028 187.294C241.326 191.262 240.137 200.339 234.157 201.468C228.177 202.597 225.131 206.747 224.422 210.738C223.712 214.729 217.216 216.418 213.62 214.833C210.023 213.249 189.384 183.634 189.384 183.634Z" fill="#191E56"/>
<path d="M176.734 165.23C176.734 165.23 178.415 168.271 199.66 167.876C220.906 167.481 220.95 186.069 227.941 189.793C234.933 193.517 241.965 198.127 241.965 198.127L228.454 215.57L216.68 224.753L177.543 205.019L176.734 165.23Z" fill="#10163D"/>
<path d="M188.759 177.5C188.759 177.5 183.576 198.933 187.527 211.454C191.477 223.975 202.966 219.723 212.274 212.887L214.232 205.674C214.232 205.674 219.095 206.718 222.049 200.767C225.002 194.816 218.664 193.712 218.664 193.712C218.664 193.712 216.217 191.948 215.981 188.394C215.981 188.394 212.022 190.23 207.581 183.851C207.581 183.851 205.258 179.882 201.736 181.3C198.213 182.719 194.347 181.61 192.585 178.46C190.823 175.309 188.759 177.5 188.759 177.5Z" fill="#FFACA6"/>
<path d="M183.464 182.455C183.464 182.455 184.656 185.739 191.382 186.475C198.108 187.212 199.677 188.409 204.794 191.508C209.911 194.607 212.689 198.234 218.744 197.921C224.799 197.607 224.356 195.148 224.356 195.148L219.44 188.152L204.616 180.139L192.652 176.887L188.123 175.939L183.464 182.455Z" fill="#EA756C"/>
</g>
<defs>
<linearGradient id="paint0_linear_2_23" x1="205.864" y1="171.887" x2="669.417" y2="171.887" gradientUnits="userSpaceOnUse">
<stop stop-color="#B0D8FF"/>
<stop offset="0.0154" stop-color="#B3D9FF"/>
<stop offset="0.145" stop-color="#C4E1FF"/>
<stop offset="0.3014" stop-color="#D1E7FF"/>
<stop offset="0.5117" stop-color="#D8EAFF"/>
<stop offset="1" stop-color="#DAEBFF"/>
</linearGradient>
<linearGradient id="paint1_linear_2_23" x1="153.754" y1="41.4874" x2="154.65" y2="145.753" gradientUnits="userSpaceOnUse">
<stop stop-color="#B0D8FF"/>
<stop offset="0.0154" stop-color="#B3D9FF"/>
<stop offset="0.145" stop-color="#C4E1FF"/>
<stop offset="0.3014" stop-color="#D1E7FF"/>
<stop offset="0.5117" stop-color="#D8EAFF"/>
<stop offset="1" stop-color="#DAEBFF"/>
</linearGradient>
<linearGradient id="paint2_linear_2_23" x1="670.667" y1="52.4754" x2="667.979" y2="192.084" gradientUnits="userSpaceOnUse">
<stop stop-color="#B0D8FF"/>
<stop offset="0.0154" stop-color="#B3D9FF"/>
<stop offset="0.145" stop-color="#C4E1FF"/>
<stop offset="0.3014" stop-color="#D1E7FF"/>
<stop offset="0.5117" stop-color="#D8EAFF"/>
<stop offset="1" stop-color="#DAEBFF"/>
</linearGradient>
<linearGradient id="paint3_linear_2_23" x1="509.518" y1="262.029" x2="508.622" y2="366.294" gradientUnits="userSpaceOnUse">
<stop stop-color="#B0D8FF"/>
<stop offset="0.0154" stop-color="#B3D9FF"/>
<stop offset="0.145" stop-color="#C4E1FF"/>
<stop offset="0.3014" stop-color="#D1E7FF"/>
<stop offset="0.5117" stop-color="#D8EAFF"/>
<stop offset="1" stop-color="#DAEBFF"/>
</linearGradient>
<clipPath id="clip0_2_23">
<rect width="879" height="538" fill="white"/>
</clipPath>
</defs>
</svg>
